<svg xmlns="http://www.w3.org/2000/svg" version="1.1" xmlns:xlink="http://www.w3.org/1999/xlink" xmlns:svgjs="http://svgjs.dev/svgjs" width="1000" height="1000" viewBox="0 0 1000 1000"><rect width="1000" height="1000" fill="#ffffff"></rect><g transform="matrix(0.7,0,0,0.7,149.57576945110304,442.2355418114108)"><svg viewBox="0 0 396 65" data-background-color="#7c4e29" preserveAspectRatio="xMidYMid meet" height="164" width="1000" xmlns="http://www.w3.org/2000/svg" xmlns:xlink="http://www.w3.org/1999/xlink"><g id="tight-bounds" transform="matrix(1,0,0,1,0.2399932819474202,0.2063571904978403)"><svg viewBox="0 0 395.52 64.58728146501922" height="64.58728146501922" width="395.52"><g><svg viewBox="0 0 514.2855945149477 83.98136237444798" height="64.58728146501922" width="395.52"><g transform="matrix(1,0,0,1,118.76559451494764,11.606686116873782)"><svg viewBox="0 0 395.52 60.76799014070042" height="60.76799014070042" width="395.52"><g id="textblocktransform"><svg viewBox="0 0 395.52 60.76799014070042" height="60.76799014070042" width="395.52" id="textblock"><g><svg viewBox="0 0 395.52 60.76799014070042" height="60.76799014070042" width="395.52"><g transform="matrix(1,0,0,1,0,0)"><svg width="395.52" viewBox="3.8299999237060547 -36.040000915527344 236.62998962402344 36.53000259399414" height="60.76799014070042" data-palette-color="#e6b17e"><g class="wordmark-text-0" data-fill-palette-color="primary" id="text-0"><path d="M3.83-35.55L9.59-35.55 18.87-6.54 28.15-35.55 33.91-35.55 33.91 0 29.44 0 29.44-13.84 29.86-27.71 20.56 0 17.14 0 7.89-27.61 8.3-13.84 8.3 0 3.83 0 3.83-35.55ZM64.72-21.12L64.72-14.65Q64.72-7.37 61.62-3.44 58.52 0.49 52.81 0.49L52.81 0.49Q47.31 0.49 44.13-3.33 40.94-7.15 40.82-14.14L40.82-14.14 40.82-20.83Q40.82-27.95 43.97-31.99 47.12-36.04 52.76-36.04L52.76-36.04Q58.37-36.04 61.51-32.17 64.65-28.3 64.72-21.12L64.72-21.12ZM60.25-14.21L60.25-20.87Q60.25-26.51 58.41-29.26 56.56-32.01 52.76-32.01L52.76-32.01Q49.07-32.01 47.18-29.22 45.29-26.44 45.26-21.02L45.26-21.02 45.26-14.65Q45.26-9.2 47.15-6.35 49.05-3.49 52.81-3.49 56.56-3.49 58.37-6.13 60.18-8.76 60.25-14.21L60.25-14.21ZM92.4-35.55L92.4-31.69 83.05-31.69 83.05 0 78.58 0 78.58-31.69 69.26-31.69 69.26-35.55 92.4-35.55ZM120.77-21.12L120.77-14.65Q120.77-7.37 117.67-3.44 114.57 0.49 108.85 0.49L108.85 0.49Q103.36 0.49 100.18-3.33 96.99-7.15 96.87-14.14L96.87-14.14 96.87-20.83Q96.87-27.95 100.02-31.99 103.17-36.04 108.81-36.04L108.81-36.04Q114.42-36.04 117.56-32.17 120.7-28.3 120.77-21.12L120.77-21.12ZM116.3-14.21L116.3-20.87Q116.3-26.51 114.46-29.26 112.61-32.01 108.81-32.01L108.81-32.01Q105.12-32.01 103.23-29.22 101.34-26.44 101.31-21.02L101.31-21.02 101.31-14.65Q101.31-9.2 103.2-6.35 105.1-3.49 108.85-3.49 112.61-3.49 114.42-6.13 116.23-8.76 116.3-14.21L116.3-14.21Z" fill="#000000" data-fill-palette-color="primary"></path><path d="M151.58-8.98L151.58-8.98Q151.58-11.65 150.14-13.06 148.7-14.48 144.94-15.82 141.18-17.16 139.19-18.64 137.2-20.12 136.21-22.01 135.22-23.9 135.22-26.34L135.22-26.34Q135.22-30.57 138.04-33.3 140.86-36.04 145.43-36.04L145.43-36.04Q148.55-36.04 150.99-34.63 153.43-33.23 154.75-30.74 156.07-28.25 156.07-25.27L156.07-25.27 151.58-25.27Q151.58-28.56 149.99-30.37 148.4-32.18 145.43-32.18L145.43-32.18Q142.72-32.18 141.23-30.66 139.74-29.15 139.74-26.42L139.74-26.42Q139.74-24.17 141.35-22.66 142.96-21.14 146.33-19.95L146.33-19.95Q151.58-18.21 153.84-15.67 156.09-13.13 156.09-9.03L156.09-9.03Q156.09-4.71 153.29-2.11 150.48 0.49 145.65 0.49L145.65 0.49Q142.54 0.49 139.92-0.87 137.3-2.22 135.79-4.68 134.29-7.13 134.29-10.3L134.29-10.3 138.79-10.3Q138.79-7.01 140.63-5.18 142.47-3.34 145.65-3.34L145.65-3.34Q148.6-3.34 150.09-4.86 151.58-6.37 151.58-8.98ZM173.6-13.92L166.42-13.92 166.42 0 161.95 0 161.95-35.55 173.28-35.55Q178.24-35.55 181.07-32.58 183.9-29.61 183.9-24.68L183.9-24.68Q183.9-19.56 181.2-16.78 178.5-14.01 173.6-13.92L173.6-13.92ZM166.42-31.69L166.42-17.75 173.28-17.75Q176.26-17.75 177.85-19.53 179.43-21.31 179.43-24.63L179.43-24.63Q179.43-27.83 177.8-29.76 176.16-31.69 173.3-31.69L173.3-31.69 166.42-31.69ZM212.78-21.12L212.78-14.65Q212.78-7.37 209.68-3.44 206.58 0.49 200.87 0.49L200.87 0.49Q195.37 0.49 192.19-3.33 189-7.15 188.88-14.14L188.88-14.14 188.88-20.83Q188.88-27.95 192.03-31.99 195.18-36.04 200.82-36.04L200.82-36.04Q206.43-36.04 209.57-32.17 212.71-28.3 212.78-21.12L212.78-21.12ZM208.31-14.21L208.31-20.87Q208.31-26.51 206.47-29.26 204.62-32.01 200.82-32.01L200.82-32.01Q197.13-32.01 195.24-29.22 193.35-26.44 193.32-21.02L193.32-21.02 193.32-14.65Q193.32-9.2 195.21-6.35 197.11-3.49 200.87-3.49 204.62-3.49 206.43-6.13 208.24-8.76 208.31-14.21L208.31-14.21ZM240.46-35.55L240.46-31.69 231.11-31.69 231.11 0 226.64 0 226.64-31.69 217.32-31.69 217.32-35.55 240.46-35.55Z" fill="#000000" data-fill-palette-color="secondary"></path></g></svg></g></svg></g></svg></g></svg></g><g><svg viewBox="0 0 104.41973047449164 83.98136237444798" height="83.98136237444798" width="104.41973047449164"><g><svg xmlns="http://www.w3.org/2000/svg" xmlns:xlink="http://www.w3.org/1999/xlink" version="1.1" x="0" y="0" viewBox="0 9.78600025177002 100.0003433227539 80.42699432373047" enable-background="new 0 0 100 100" xml:space="preserve" width="104.41973047449164" height="83.98136237444798" class="icon-icon-0" data-fill-palette-color="accent" id="icon-0"><path d="M49.942 52.994c13.552-0.488 27.103-0.977 40.653-1.465-2.527-4.177-3.159-7.831-7.989-8.461-7.229-0.94-14.458-1.883-21.688-2.826-14.023-1.827-28.05-3.654-42.075-5.48C20.101 36.792 39.724 53.361 49.942 52.994z" fill="#000000" data-fill-palette-color="accent"></path><path d="M0 9.786c4.391 7.257 26.615 23.072 32.953 23.886 17.33 2.231 34.657 4.46 51.986 6.688-3.393-5.607-4.18-9.35-10.312-10.959-8.904-2.341-17.812-4.683-26.717-7.023C31.94 18.182 15.97 13.984 0 9.786z" fill="#000000" data-fill-palette-color="accent"></path><path d="M63.108 66.207c10.413-2.219 20.826-4.439 31.241-6.66-2.028-3.346-2.034-5.359-5.827-5.189-6.158 0.273-12.314 0.549-18.471 0.822-11.343 0.506-22.686 1.014-34.028 1.518C37.298 58.064 54.94 67.947 63.108 66.207z" fill="#000000" data-fill-palette-color="accent"></path><path d="M87.682 90.213c5.725-3.719 7.262-7.721 10.519-13.807 3.651-6.824 1.257-7.844-2.821-14.596-0.417-0.688-5.842 0.232-6.453 0.904-0.745 0.818-0.248 5.455-0.294 6.496C88.315 76.211 87.998 83.213 87.682 90.213z" fill="#000000" data-fill-palette-color="accent"></path><path d="M86.35 63.447c-3.795 0.809-8.604 0.191-9.572 4.229-1.373 5.736-2.746 11.475-4.12 17.211C81.904 82.678 86.028 71.582 86.35 63.447z" fill="#000000" data-fill-palette-color="accent"></path><path d="M74.666 66.121c-9.148 1.953-8.956 4.611-12.879 13.18C68.007 78.711 73.811 71.941 74.666 66.121z" fill="#000000" data-fill-palette-color="accent"></path></svg></g></svg></g></svg></g><defs></defs></svg><rect width="395.52" height="64.58728146501922" fill="none" stroke="none" visibility="hidden"></rect></g></svg></g></svg>